<svg t="1697539844208" class="icon" viewBox="0 0 1024 1024" version="1.1" xmlns="http://www.w3.org/2000/svg" p-id="4270" width="200" height="200"><path d="M915.393939 217.212121c0 119.963152-180.596364 217.212121-403.393939 217.212121S108.606061 337.175273 108.606061 217.212121s180.596364-217.212121 403.393939-217.212121 403.393939 97.24897 403.393939 217.212121z" fill="#C1D0FF" p-id="4271"></path><path d="M884.363636 372.363636c0 119.963152-166.725818 217.212121-372.363636 217.212122S139.636364 492.326788 139.636364 372.363636s166.725818-217.212121 372.363636-217.212121 372.363636 97.24897 372.363636 217.212121z" fill="#0F62FE" p-id="4272"></path><path d="M915.393939 217.212121c0 119.963152-180.596364 217.212121-403.393939 217.212121S108.606061 337.175273 108.606061 217.212121s180.596364-217.212121 403.393939-217.212121 403.393939 97.24897 403.393939 217.212121z" fill="#E8E8E8" fill-opacity=".1" p-id="4273"></path><path d="M782.522182 343.505455C714.876121 379.87297 619.302788 403.393939 512 403.393939c-107.271758 0-202.876121-23.489939-270.522182-59.888484C172.528485 306.331152 139.636364 260.282182 139.636364 217.212121c0-43.101091 32.892121-89.150061 101.841454-126.293333C309.123879 54.551273 404.697212 31.030303 512 31.030303c107.271758 0 202.876121 23.489939 270.522182 59.888485C851.471515 128.093091 884.363636 174.142061 884.363636 217.212121c0 43.101091-32.892121 89.150061-101.841454 126.293334zM512 434.424242c222.797576 0 403.393939-97.24897 403.393939-217.212121s-180.596364-217.212121-403.393939-217.212121S108.606061 97.24897 108.606061 217.212121s180.596364 217.212121 403.393939 217.212121z" fill="#FFFFFF" fill-opacity=".6" p-id="4274"></path><path d="M451.677091 341.147152a13.498182 13.498182 0 0 0 13.777454-13.591273 14.149818 14.149818 0 0 0-13.777454-13.994667c-51.106909-1.768727-99.483152-13.312-135.912727-32.581818-39.718788-21.038545-62.060606-49.555394-62.060606-79.282424 0-29.72703 22.341818-58.243879 62.060606-79.251394 36.429576-19.300848 84.805818-30.844121 135.912727-32.581818a14.149818 14.149818 0 0 0 13.777454-14.025697 13.467152 13.467152 0 0 0-13.777454-13.591273c-64.915394 1.799758-126.510545 16.259879-172.714667 40.711757C229.500121 129.148121 201.69697 164.677818 201.69697 201.69697c0 37.019152 27.803152 72.548848 77.265454 98.738424 46.204121 24.451879 107.799273 38.912 172.714667 40.711758z m61.967515 0a13.560242 13.560242 0 0 0 13.870546-13.591273v-0.775758a13.34303 13.34303 0 0 0-13.001697-13.218909 13.28097 13.28097 0 0 0-13.467152 10.395152l-0.155151 0.713697a13.560242 13.560242 0 0 0 12.753454 16.44606z" fill="#FFFFFF" p-id="4275"></path><path d="M870.710303 542.782061c-48.593455 86.667636-189.843394 149.348848-356.507151 149.348848-166.632727 0-307.882667-62.681212-356.507152-149.348848-11.729455 20.914424-18.059636 43.225212-18.059636 66.404848 0 119.125333 167.718788 215.691636 374.566788 215.691636 206.87903 0 374.597818-96.566303 374.597818-215.722666 0-23.148606-6.330182-45.459394-18.059637-66.373818z" fill="#0F62FE" p-id="4276"></path><path d="M870.710303 741.934545c-48.593455 86.636606-189.843394 149.317818-356.507151 149.317819-166.632727 0-307.882667-62.681212-356.507152-149.348849-11.729455 20.914424-18.059636 43.225212-18.059636 66.404849C139.636364 927.402667 307.355152 1024 514.203152 1024c206.87903 0 374.597818-96.566303 374.597818-215.722667 0-23.148606-6.330182-45.459394-18.059637-66.373818z" fill="#0F62FE" p-id="4277"></path></svg>